<svg xmlns="http://www.w3.org/2000/svg" xmlns:xlink="http://www.w3.org/1999/xlink" width="256" height="256" preserveAspectRatio="xMidYMid meet" viewBox="0 0 256 256" style="-ms-transform: rotate(360deg); -webkit-transform: rotate(360deg); transform: rotate(360deg);"><path d="M128 20a108 108 0 1 0 108 108A108.122 108.122 0 0 0 128 20zm0 196a88 88 0 1 1 88-88a88.1 88.1 0 0 1-88 88zm0-160a72 72 0 1 0 72 72a72.081 72.081 0 0 0-72-72zm.003 103.995a31.764 31.764 0 0 0 25.602-12.8a8 8 0 0 1 12.791 9.612a48 48 0 1 1 0-57.624a8 8 0 0 1-12.79 9.611a32.001 32.001 0 1 0-25.603 51.201z" fill="#626262"/><rect x="0" y="0" width="256" height="256" fill="rgba(0, 0, 0, 0)" /></svg>